#!OML:ASF F:\VICON\USERDATA\Patient Classification 1\PLAYGROUND\JustinFriday\JustinFriday.ASF
:FULLY-SPECIFIED
:DEGREES
2246
root 13.4104 26.8852 42.0875 393.17 -175.815 5.84732
lowerback 27.4097 3.71183 4.15641
upperback 13.0156 2.64144 1.81524
thorax -0.416102 0.231316 -1.07614
lowerneck 2.20264 -23.0406 -5.2917
upperneck -7.72115 -29.4839 25.2058
head 2.03222 -15.021 6.85666
rclavicle 1.35174e-014 1.63997e-014
rhumerus -23.695 11.2823 -81.7367
rradius 93.2382
rwrist 27.6718
rhand -36.4344 0.146768
rfingers 7.12502
rthumb -9.52895 -29.6178
lclavicle 1.35174e-014 1.63997e-014
lhumerus -17.0133 -23.9724 78.121
lradius 89.0885
lwrist -36.7287
lhand -30.5913 -32.8144
lfingers 7.12502
lthumb -3.88848 -2.87009
rfemur -30.5793 2.41772 30.2705
rtibia 29.6641
rfoot -21.8933 -26.4202
rtoes 44.0234
lfemur -31.9905 3.43588 -12.0762
ltibia 33.3145
lfoot -37.4611 1.32274
ltoes -9.27206
2247
root 13.4091 26.8908 42.1408 393.017 -175.702 5.7484
lowerback 27.4559 3.63866 4.26364
upperback 13.0529 2.55804 1.80262
thorax -0.389504 0.191101 -1.12946
lowerneck 2.28287 -23.074 -5.35534
upperneck -7.84002 -29.5097 25.5717
head 2.06098 -15.0519 6.96299
rclavicle -3.57812e-015 -1.98785e-015
rhumerus -23.2812 11.1446 -81.6156
rradius 93.2582
rwrist 27.6435
rhand -36.3024 0.158928
rfingers 7.12502
rthumb -9.40162 -29.6114
lclavicle -3.57812e-015 -1.98785e-015
lhumerus -16.4102 -23.9521 77.9875
lradius 88.8256
lwrist -36.7371
lhand -30.3812 -32.7621
lfingers 7.12502
lthumb -3.68556 -2.81427
rfemur -30.6234 2.2548 30.2413
rtibia 29.6581
rfoot -21.5837 -26.5895
rtoes 43.8166
lfemur -32.0532 3.3217 -12.1384
ltibia 33.3139
lfoot -37.412 1.43286
ltoes -9.27218
2248
root 13.4112 26.9016 42.2009 392.923 -175.468 5.40049
lowerback 27.5392 3.50814 4.22681
upperback 13.0745 2.37856 1.78943
thorax -0.413582 0.0993399 -1.07783
lowerneck 2.36851 -23.1402 -5.21363
upperneck -8.19015 -29.5125 25.8427
head 1.97033 -15.1021 7.05
rclavicle -3.1408e-014 -2.82274e-014
rhumerus -22.869 11.0843 -81.5134
rradius 93.3433
rwrist 27.5859
rhand -36.2919 -1.36667
rfingers 7.12502
rthumb -9.3915 -31.1374
lclavicle -3.1408e-014 -2.82274e-014
lhumerus -15.889 -23.9007 77.7739
lradius 88.7514
lwrist -36.7072
lhand -30.2458 -32.7511
lfingers 7.12502
lthumb -3.55486 -2.80104
rfemur -30.7468 2.07831 29.9703
rtibia 29.6097
rfoot -21.5235 -26.9537
rtoes 43.3924
lfemur -32.2431 2.75122 -12.3253
ltibia 33.3149
lfoot -37.4302 1.69972
ltoes -9.26127
2249
root 13.4166 26.9018 42.2544 392.852 -175.627 5.67587
lowerback 27.3947 3.63526 4.22692
upperback 13.1462 2.51153 1.84585
thorax -0.262187 0.158251 -1.04783
lowerneck 2.49679 -23.176 -5.1967
upperneck -8.58709 -29.4734 26.1262
head 1.87415 -15.1404 7.16332
rclavicle -2.34566e-014 1.55052e-014
rhumerus -22.435 11.0731 -81.4205
rradius 93.3934
rwrist 27.7384
rhand -35.2884 2.84705
rfingers 7.12502
rthumb -8.4231 -26.965
lclavicle -2.34566e-014 1.55052e-014
lhumerus -15.5525 -23.8239 77.5446
lradius 88.8941
lwrist -36.7132
lhand -30.0383 -32.6143
lfingers 7.12502
lthumb -3.35448 -2.66098
rfemur -30.8289 2.3417 30.1606
rtibia 29.5787
rfoot -21.6083 -26.9921
rtoes 43.0233
lfemur -32.3129 3.04175 -12.1107
ltibia 33.2761
lfoot -37.5028 1.57719
ltoes -9.33991
2250
root 13.4173 26.9024 42.3092 392.779 -175.804 5.76511
lowerback 27.9153 3.93657 4.0235
upperback 13.0609 2.87156 2.0161
thorax -0.607343 0.306171 -0.853724
lowerneck 1.42487 -23.4685 -4.28002
upperneck -8.46486 -29.8704 25.6965
head 1.92232 -15.2724 6.79496
rclavicle -2.54444e-014 -1.13307e-014
rhumerus -22.042 10.7159 -81.0059
rradius 93.5025
rwrist 27.6576
rhand -34.9185 2.16224
rfingers 7.12502
rthumb -8.06613 -27.6638
lclavicle -2.54444e-014 -1.13307e-014
lhumerus -14.4966 -24.171 77.6436
lradius 88.4607
lwrist -36.7428
lhand -29.7057 -32.3051
lfingers 7.12502
lthumb -3.03321 -2.34688
rfemur -30.9469 2.44938 30.1584
rtibia 29.5877
rfoot -21.5583 -26.9249
rtoes 42.7627
lfemur -32.3632 3.06806 -12.069
ltibia 33.2066
lfoot -37.5117 1.83524
ltoes -9.69463
2251
root 13.4148 26.9078 42.3618 392.645 -175.855 5.60446
lowerback 27.6256 3.77671 4.01801
upperback 13.1718 2.6257 1.87991
thorax -0.351607 0.190803 -0.926818
lowerneck 2.10872 -23.3438 -4.90544
upperneck -8.8399 -29.6457 26.3958
head 1.88923 -15.2433 7.14784
rclavicle -3.49861e-014 0
rhumerus -21.5411 11.0635 -81.043
rradius 93.5572
rwrist 27.3266
rhand -34.6019 1.37315
rfingers 7.12502
rthumb -7.76052 -28.4644
lclavicle -3.49861e-014 0
lhumerus -14.1905 -23.9039 77.2613
lradius 88.612
lwrist -36.5847
lhand -29.3148 -31.9636
lfingers 7.12502
lthumb -2.65573 -2.00036
rfemur -31.0165 2.31254 29.989
rtibia 29.6085
rfoot -21.5969 -26.8716
rtoes 42.4802
lfemur -32.3601 3.05291 -12.2918
ltibia 33.1318
lfoot -37.6222 2.09079
ltoes -10.0421
2252
root 13.4139 26.911 42.4152 392.505 -175.76 5.62741
lowerback 27.79 3.71881 4.13415
upperback 13.1997 2.5618 1.89114
thorax -0.388887 0.154905 -0.966568
lowerneck 1.85641 -23.4127 -4.53853
upperneck -9.01706 -29.6865 26.474
head 1.84075 -15.2811 7.11378
rclavicle 6.36111e-015 5.26779e-015
rhumerus -21.0643 11.1137 -80.9157
rradius 93.7098
rwrist 27.0214
rhand -34.3196 0.494827
rfingers 7.12502
rthumb -7.48809 -29.3526
lclavicle 6.36111e-015 5.26779e-015
lhumerus -13.9472 -23.851 76.9704
lradius 88.9514
lwrist -36.2583
lhand -28.9502 -31.7758
lfingers 7.12502
lthumb -2.30362 -1.80848
rfemur -31.1018 2.2128 30.0745
rtibia 29.6749
rfoot -21.7463 -27.0182
rtoes 42.1061
lfemur -32.3634 3.18907 -12.2962
ltibia 33.0164
lfoot -37.6648 1.92615
ltoes -9.74539
2253
root 13.4162 26.9147 42.4714 392.385 -175.81 5.58348
lowerback 27.9984 3.47851 4.04583
upperback 12.9615 2.30673 1.82049
thorax -0.769457 0.0363844 -0.930815
lowerneck 2.64969 -23.223 -5.31982
upperneck -9.0154 -29.4707 26.8975
head 1.877 -15.2124 7.40478
rclavicle 5.96354e-015 2.78299e-015
rhumerus -21.0314 11.796 -81.0001
rradius 93.8389
rwrist 26.7817
rhand -33.5486 1.22498
rfingers 7.12502
rthumb -6.74381 -28.6476
lclavicle 5.96354e-015 2.78299e-015
lhumerus -14.2316 -23.4233 76.5987
lradius 89.1941
lwrist -35.6373
lhand -28.661 -31.6798
lfingers 7.12502
lthumb -2.02434 -1.70962
rfemur -31.2165 2.20148 30.0248
rtibia 29.7179
rfoot -22.0475 -27.2712
rtoes 41.5166
lfemur -32.4 3.28709 -12.3929
ltibia 32.9386
lfoot -37.6056 1.79501
ltoes -9.33464
2254
root 13.4222 26.9211 42.534 392.228 -176.025 5.44569
lowerback 27.8798 3.46337 3.678
upperback 13.0295 2.1685 1.83406
thorax -0.669908 -0.0545959 -0.66851
lowerneck 3.42344 -23.036 -5.96789
upperneck -9.52115 -29.1443 27.3886
head 1.7402 -15.1539 7.7516
rclavicle -1.03368e-014 4.96962e-016
rhumerus -20.4652 12.318 -80.7426
rradius 93.8553
rwrist 26.4909
rhand -33.7091 -0.750335
rfingers 7.12502
rthumb -6.89879 -30.6179
lclavicle -1.03368e-014 4.96962e-016
lhumerus -13.8231 -22.8784 76.8386
lradius 88.8916
lwrist -35.7122
lhand -28.4909 -31.5172
lfingers 7.12502
lthumb -1.86 -1.54553
rfemur -31.275 2.38231 29.7499
rtibia 29.703
rfoot -22.3784 -27.4629
rtoes 41.0186
lfemur -32.4078 3.13843 -12.5711
ltibia 32.9259
lfoot -37.5612 2.05518
ltoes -9.303
2255
root 13.4315 26.9224 42.6008 392.015 -176.261 5.74004
lowerback 28.0845 3.54035 3.55259
upperback 12.9401 2.25118 1.93402
thorax -0.87499 -0.0303019 -0.513776
lowerneck 4.1653 -22.9216 -6.52764
upperneck -9.89968 -28.9437 27.769
head 1.63107 -15.1368 8.03779
rclavicle -2.18663e-014 -1.85864e-014
rhumerus -20.1598 12.6892 -80.5671
rradius 93.85
rwrist 26.3343
rhand -33.7252 -1.75151
rfingers 7.12502
rthumb -6.91434 -31.6186
lclavicle -2.18663e-014 -1.85864e-014
lhumerus -13.6815 -22.6801 76.7665
lradius 89.0012
lwrist -35.4043
lhand -28.2051 -31.2869
lfingers 7.12502
lthumb -1.58398 -1.31302
rfemur -31.2073 2.81986 29.866
rtibia 29.6512
rfoot -22.5508 -27.5004
rtoes 40.7198
lfemur -32.3606 3.15189 -12.3141
ltibia 32.9494
lfoot -37.6234 2.42317
ltoes -9.52502
2256
root 13.4324 26.9235 42.6605 391.823 -176.033 5.90778
lowerback 28.2244 3.42606 3.80828
upperback 12.8281 2.20059 2.08312
thorax -1.05604 -0.0498552 -0.484549
lowerneck 4.74192 -22.8808 -7.13203
upperneck -10.043 -28.9097 28.2078
head 1.66057 -15.1622 8.28275
rclavicle 2.42517e-014 -1.71949e-014
rhumerus -19.9775 12.8444 -80.3784
rradius 93.8653
rwrist 26.3313
rhand -33.6964 -2.03969
rfingers 7.12502
rthumb -6.88653 -31.9077
lclavicle 2.42517e-014 -1.71949e-014
lhumerus -13.4081 -22.5725 77.1166
lradius 88.803
lwrist -35.4287
lhand -27.8779 -31.1639
lfingers 7.12502
lthumb -1.26797 -1.18797
rfemur -31.1667 2.90296 30.0886
rtibia 29.5956
rfoot -22.6334 -27.47
rtoes 40.5254
lfemur -32.4226 3.14942 -12.0648
ltibia 32.9651
lfoot -37.7261 2.47616
ltoes -10.11
